<svg width="11" height="13" viewBox="0 0 11 13" fill="none" xmlns="http://www.w3.org/2000/svg">
<path d="M1.34501 12.0661L1.34356 12.0653C1.31239 12.0476 1.28578 12.0214 1.26696 11.989C1.24817 11.9566 1.238 11.9193 1.23789 11.881V1.82566H1.23801L1.23777 1.81509C1.23135 1.52716 1.33748 1.24923 1.53158 1.04135C1.72377 0.83553 1.98667 0.714836 2.26381 0.703072H8.7532C9.03034 0.714836 9.29324 0.83553 9.48543 1.04135C9.67953 1.24923 9.78566 1.52716 9.77924 1.81509L9.77912 1.81508V1.82566V11.8797C9.77872 11.9172 9.76871 11.9536 9.75044 11.9854C9.73201 12.0174 9.706 12.0434 9.67548 12.0612L9.67548 12.0612C9.64482 12.0791 9.61046 12.0883 9.5758 12.0883C9.54113 12.0883 9.50677 12.0791 9.47612 12.0612L9.47613 12.0612L9.47263 12.0592L5.62904 9.85882L5.38619 9.71979L5.14699 9.86501L1.53388 12.0585L1.53386 12.0585L1.52787 12.0622C1.49958 12.08 1.46781 12.0902 1.43537 12.0923C1.40394 12.091 1.37297 12.0822 1.34501 12.0661Z" stroke="#24304C" stroke-width="0.949113"/>
</svg>
