<svg width="15" height="13" viewBox="0 0 15 13" fill="none" xmlns="http://www.w3.org/2000/svg">
<path d="M7.10411 2.66631L7.50447 3.29545L7.90484 2.66631C8.48166 1.75987 9.50084 1.17768 10.6682 1.17768C12.4941 1.17768 13.9901 2.67362 13.9901 4.49958C13.9901 5.30591 13.618 6.15667 12.9944 7.00696C12.3745 7.85233 11.5376 8.65407 10.684 9.35241C9.83286 10.0488 8.97929 10.631 8.33722 11.0396C8.01665 11.2436 7.74994 11.4036 7.5641 11.5122C7.54351 11.5242 7.52392 11.5356 7.50537 11.5464C7.48666 11.5355 7.46691 11.5239 7.44614 11.5117C7.26023 11.4022 6.99345 11.2411 6.6728 11.0358C6.03059 10.6247 5.17681 10.0395 4.3254 9.34096C3.47163 8.64048 2.63444 7.83755 2.0143 6.99331C1.39027 6.14378 1.01887 5.29722 1.01887 4.49958C1.01887 2.67362 2.51481 1.17768 4.34076 1.17768C5.50811 1.17768 6.52729 1.75987 7.10411 2.66631Z" stroke="#24304C" stroke-width="0.949113"/>
</svg>
