<svg width="12" height="13" viewBox="0 0 12 13" fill="none" xmlns="http://www.w3.org/2000/svg">
<path d="M8.59836 9.60373L8.65885 9.63894L8.71079 9.592C9.02711 9.30609 9.43905 9.12495 9.89835 9.12495C10.8737 9.12495 11.6675 9.91873 11.6675 10.8941C11.6675 11.8694 10.8737 12.6632 9.89835 12.6632C8.92299 12.6632 8.12922 11.8694 8.12922 10.8941C8.12922 10.7621 8.14723 10.6291 8.17771 10.5011L8.19416 10.432L8.13284 10.3962L3.58548 7.73934L3.52417 7.70352L3.47207 7.75176C3.14353 8.05596 2.71289 8.24358 2.23426 8.24358C1.22697 8.24358 0.414038 7.43065 0.414038 6.42336C0.414038 5.41607 1.22697 4.60314 2.23426 4.60314C2.71289 4.60314 3.14353 4.79076 3.47207 5.09496L3.52412 5.14316L3.5854 5.10743L8.08806 2.48248L8.14821 2.44741L8.13342 2.37936C8.10194 2.23456 8.07813 2.0956 8.07813 1.95264C8.07813 0.945354 8.89106 0.132422 9.89835 0.132422C10.9056 0.132422 11.7186 0.945354 11.7186 1.95264C11.7186 2.95993 10.9056 3.77286 9.89835 3.77286C9.41972 3.77286 8.98908 3.58524 8.66054 3.28104L8.60849 3.23285L8.5472 3.26858L4.04455 5.89353L3.98439 5.9286L3.99919 5.99664C4.03066 6.14144 4.05448 6.28041 4.05448 6.42336C4.05448 6.56632 4.03066 6.70528 3.99919 6.85008L3.98438 6.91818L4.04461 6.95323L8.59836 9.60373ZM10.6328 1.95264C10.6328 1.54846 10.3025 1.21817 9.89835 1.21817C9.49417 1.21817 9.16387 1.54846 9.16387 1.95264C9.16387 2.35682 9.49417 2.68712 9.89835 2.68712C10.3025 2.68712 10.6328 2.35682 10.6328 1.95264ZM1.49978 6.42336C1.49978 6.82754 1.83008 7.15784 2.23426 7.15784C2.63844 7.15784 2.96873 6.82754 2.96873 6.42336C2.96873 6.01918 2.63844 5.68889 2.23426 5.68889C1.83008 5.68889 1.49978 6.01918 1.49978 6.42336ZM9.16387 10.9069C9.16387 11.311 9.49417 11.6413 9.89835 11.6413C10.3025 11.6413 10.6328 11.311 10.6328 10.9069C10.6328 10.5027 10.3025 10.1724 9.89835 10.1724C9.49417 10.1724 9.16387 10.5027 9.16387 10.9069Z" fill="black" stroke="white" stroke-width="0.191602"/>
</svg>
