<svg width="149" height="19" viewBox="0 0 149 19" fill="none" xmlns="http://www.w3.org/2000/svg">
<path d="M0.629818 15V1.25455H6.57964C7.81018 1.25455 8.87055 1.45745 9.76073 1.86327C10.6509 2.256 11.3382 2.82545 11.8225 3.57164C12.3069 4.31782 12.5491 5.208 12.5491 6.24218C12.5491 7.26327 12.3069 8.14691 11.8225 8.89309C11.3382 9.63927 10.6509 10.2153 9.76073 10.6211C8.87055 11.0138 7.81018 11.2102 6.57964 11.2102H2.39709L3.81091 9.77673V15H0.629818ZM3.81091 10.1302L2.39709 8.61818H6.40291C7.38473 8.61818 8.11782 8.40873 8.60218 7.98982C9.08655 7.57091 9.32873 6.98836 9.32873 6.24218C9.32873 5.48291 9.08655 4.89382 8.60218 4.47491C8.11782 4.056 7.38473 3.84655 6.40291 3.84655H2.39709L3.81091 2.33455V10.1302ZM14.585 15V4.43564H17.5108V7.42036L17.0984 6.55636C17.4126 5.81018 17.9166 5.24727 18.6104 4.86764C19.3043 4.47491 20.1486 4.27855 21.1435 4.27855V7.10618C21.0126 7.09309 20.8948 7.08655 20.7901 7.08655C20.6853 7.07345 20.5741 7.06691 20.4563 7.06691C19.6184 7.06691 18.9377 7.30909 18.4141 7.79345C17.9035 8.26473 17.6483 9.00436 17.6483 10.0124V15H14.585ZM27.9152 15.1571C26.7893 15.1571 25.7879 14.9215 24.9108 14.4502C24.0468 13.9789 23.3595 13.3375 22.849 12.5258C22.3515 11.7011 22.1028 10.7651 22.1028 9.71782C22.1028 8.65745 22.3515 7.72145 22.849 6.90982C23.3595 6.08509 24.0468 5.44364 24.9108 4.98545C25.7879 4.51418 26.7893 4.27855 27.9152 4.27855C29.0279 4.27855 30.0228 4.51418 30.8999 4.98545C31.777 5.44364 32.4642 6.07855 32.9617 6.89018C33.4592 7.70182 33.7079 8.64436 33.7079 9.71782C33.7079 10.7651 33.4592 11.7011 32.9617 12.5258C32.4642 13.3375 31.777 13.9789 30.8999 14.4502C30.0228 14.9215 29.0279 15.1571 27.9152 15.1571ZM27.9152 12.6436C28.4257 12.6436 28.8839 12.5258 29.2897 12.2902C29.6955 12.0545 30.0162 11.7207 30.2519 11.2887C30.4875 10.8436 30.6053 10.32 30.6053 9.71782C30.6053 9.10255 30.4875 8.57891 30.2519 8.14691C30.0162 7.71491 29.6955 7.38109 29.2897 7.14546C28.8839 6.90982 28.4257 6.792 27.9152 6.792C27.4046 6.792 26.9464 6.90982 26.5406 7.14546C26.1348 7.38109 25.8075 7.71491 25.5588 8.14691C25.3232 8.57891 25.2053 9.10255 25.2053 9.71782C25.2053 10.32 25.3232 10.8436 25.5588 11.2887C25.8075 11.7207 26.1348 12.0545 26.5406 12.2902C26.9464 12.5258 27.4046 12.6436 27.9152 12.6436ZM40.2914 15.1571C39.2965 15.1571 38.3998 14.9345 37.6013 14.4895C36.8027 14.0313 36.1678 13.3964 35.6965 12.5847C35.2383 11.7731 35.0093 10.8175 35.0093 9.71782C35.0093 8.60509 35.2383 7.64291 35.6965 6.83127C36.1678 6.01964 36.8027 5.39127 37.6013 4.94618C38.3998 4.50109 39.2965 4.27855 40.2914 4.27855C41.1816 4.27855 41.9605 4.47491 42.6282 4.86764C43.2958 5.26036 43.8129 5.856 44.1794 6.65455C44.546 7.45309 44.7293 8.47418 44.7293 9.71782C44.7293 10.9484 44.5525 11.9695 44.1991 12.7811C43.8456 13.5796 43.3351 14.1753 42.6674 14.568C42.0129 14.9607 41.2209 15.1571 40.2914 15.1571ZM40.8216 12.6436C41.3191 12.6436 41.7707 12.5258 42.1765 12.2902C42.5823 12.0545 42.9031 11.7207 43.1387 11.2887C43.3874 10.8436 43.5118 10.32 43.5118 9.71782C43.5118 9.10255 43.3874 8.57891 43.1387 8.14691C42.9031 7.71491 42.5823 7.38109 42.1765 7.14546C41.7707 6.90982 41.3191 6.792 40.8216 6.792C40.3111 6.792 39.8529 6.90982 39.4471 7.14546C39.0413 7.38109 38.714 7.71491 38.4653 8.14691C38.2296 8.57891 38.1118 9.10255 38.1118 9.71782C38.1118 10.32 38.2296 10.8436 38.4653 11.2887C38.714 11.7207 39.0413 12.0545 39.4471 12.2902C39.8529 12.5258 40.3111 12.6436 40.8216 12.6436ZM43.5903 15V12.84L43.6493 9.69818L43.4529 6.576V0.429818H46.5162V15H43.5903ZM53.8088 15.1571C52.9317 15.1571 52.1462 14.9869 51.4524 14.6465C50.7717 14.3062 50.2415 13.7891 49.8619 13.0953C49.4822 12.3884 49.2924 11.4916 49.2924 10.4051V4.43564H52.3557V9.95345C52.3557 10.8305 52.539 11.4785 52.9055 11.8975C53.2851 12.3033 53.8153 12.5062 54.496 12.5062C54.9673 12.5062 55.3862 12.408 55.7528 12.2116C56.1193 12.0022 56.4073 11.688 56.6168 11.2691C56.8262 10.8371 56.931 10.3004 56.931 9.65891V4.43564H59.9942V15H57.088V12.0938L57.6182 12.9382C57.2648 13.6713 56.7411 14.2276 56.0473 14.6073C55.3666 14.9738 54.6204 15.1571 53.8088 15.1571ZM67.9376 15.1571C66.7987 15.1571 65.7841 14.928 64.894 14.4698C64.0038 13.9985 63.3034 13.3505 62.7929 12.5258C62.2954 11.7011 62.0467 10.7651 62.0467 9.71782C62.0467 8.65745 62.2954 7.72145 62.7929 6.90982C63.3034 6.08509 64.0038 5.44364 64.894 4.98545C65.7841 4.51418 66.7987 4.27855 67.9376 4.27855C69.0503 4.27855 70.019 4.51418 70.8438 4.98545C71.6685 5.44364 72.2772 6.10473 72.67 6.96873L70.294 8.24509C70.019 7.74764 69.6721 7.38109 69.2532 7.14546C68.8474 6.90982 68.4023 6.792 67.918 6.792C67.3943 6.792 66.923 6.90982 66.5041 7.14546C66.0852 7.38109 65.7514 7.71491 65.5027 8.14691C65.267 8.57891 65.1492 9.10255 65.1492 9.71782C65.1492 10.3331 65.267 10.8567 65.5027 11.2887C65.7514 11.7207 66.0852 12.0545 66.5041 12.2902C66.923 12.5258 67.3943 12.6436 67.918 12.6436C68.4023 12.6436 68.8474 12.5324 69.2532 12.3098C69.6721 12.0742 70.019 11.7011 70.294 11.1905L72.67 12.4865C72.2772 13.3375 71.6685 13.9985 70.8438 14.4698C70.019 14.928 69.0503 15.1571 67.9376 15.1571ZM78.9071 15.1571C77.6635 15.1571 76.6947 14.8429 76.0009 14.2145C75.3071 13.5731 74.9602 12.624 74.9602 11.3673V2.09891H78.0235V11.328C78.0235 11.7731 78.1413 12.12 78.3769 12.3687C78.6126 12.6044 78.9333 12.7222 79.3391 12.7222C79.8235 12.7222 80.2358 12.5913 80.5762 12.3295L81.4009 14.4895C81.0867 14.712 80.7071 14.8822 80.262 15C79.83 15.1047 79.3784 15.1571 78.9071 15.1571ZM73.3304 7.02764V4.67127H80.6547V7.02764H73.3304Z" fill="black"/>
<path d="M93.4139 15.2356C92.3143 15.2356 91.2605 15.0916 90.2525 14.8036C89.2445 14.5025 88.4328 14.1164 87.8176 13.6451L88.8976 11.2495C89.4867 11.6684 90.1805 12.0153 90.979 12.2902C91.7907 12.552 92.6088 12.6829 93.4336 12.6829C94.0619 12.6829 94.5659 12.624 94.9456 12.5062C95.3383 12.3753 95.6263 12.1985 95.8096 11.976C95.9928 11.7535 96.0845 11.4982 96.0845 11.2102C96.0845 10.8436 95.9405 10.5556 95.6525 10.3462C95.3645 10.1236 94.9848 9.94691 94.5136 9.816C94.0423 9.672 93.5187 9.54109 92.9427 9.42327C92.3797 9.29236 91.8103 9.13527 91.2343 8.952C90.6714 8.76873 90.1543 8.53309 89.683 8.24509C89.2117 7.95709 88.8256 7.57745 88.5245 7.10618C88.2365 6.63491 88.0925 6.03273 88.0925 5.29964C88.0925 4.51418 88.3019 3.80073 88.7208 3.15927C89.1528 2.50473 89.7943 1.98764 90.6452 1.608C91.5092 1.21527 92.5892 1.01891 93.8852 1.01891C94.7492 1.01891 95.6001 1.12364 96.4379 1.33309C97.2757 1.52945 98.0154 1.83055 98.6568 2.23636L97.675 4.65164C97.0336 4.28509 96.3921 4.01673 95.7507 3.84655C95.1092 3.66327 94.4808 3.57164 93.8656 3.57164C93.2503 3.57164 92.7463 3.64364 92.3536 3.78764C91.9608 3.93164 91.6794 4.12146 91.5092 4.35709C91.339 4.57964 91.2539 4.84145 91.2539 5.14255C91.2539 5.496 91.3979 5.784 91.6859 6.00655C91.9739 6.216 92.3536 6.38618 92.8248 6.51709C93.2961 6.648 93.8132 6.77891 94.3761 6.90982C94.9521 7.04073 95.5216 7.19127 96.0845 7.36145C96.6605 7.53164 97.1841 7.76073 97.6554 8.04873C98.1267 8.33673 98.5063 8.71636 98.7943 9.18764C99.0954 9.65891 99.2459 10.2545 99.2459 10.9745C99.2459 11.7469 99.0299 12.4538 98.5979 13.0953C98.1659 13.7367 97.5179 14.2538 96.6539 14.6465C95.803 15.0393 94.723 15.2356 93.4139 15.2356ZM107.448 15.1571C106.558 15.1571 105.779 14.9607 105.111 14.568C104.444 14.1753 103.92 13.5796 103.54 12.7811C103.174 11.9695 102.99 10.9484 102.99 9.71782C102.99 8.47418 103.167 7.45309 103.521 6.65455C103.874 5.856 104.385 5.26036 105.052 4.86764C105.72 4.47491 106.518 4.27855 107.448 4.27855C108.443 4.27855 109.333 4.50764 110.118 4.96582C110.917 5.41091 111.545 6.03927 112.004 6.85091C112.475 7.66255 112.71 8.61818 112.71 9.71782C112.71 10.8305 112.475 11.7927 112.004 12.6044C111.545 13.416 110.917 14.0444 110.118 14.4895C109.333 14.9345 108.443 15.1571 107.448 15.1571ZM101.204 18.8095V4.43564H104.129V6.59564L104.07 9.73745L104.267 12.8596V18.8095H101.204ZM106.918 12.6436C107.428 12.6436 107.88 12.5258 108.273 12.2902C108.678 12.0545 108.999 11.7207 109.235 11.2887C109.484 10.8436 109.608 10.32 109.608 9.71782C109.608 9.10255 109.484 8.57891 109.235 8.14691C108.999 7.71491 108.678 7.38109 108.273 7.14546C107.88 6.90982 107.428 6.792 106.918 6.792C106.407 6.792 105.949 6.90982 105.543 7.14546C105.137 7.38109 104.817 7.71491 104.581 8.14691C104.345 8.57891 104.228 9.10255 104.228 9.71782C104.228 10.32 104.345 10.8436 104.581 11.2887C104.817 11.7207 105.137 12.0545 105.543 12.2902C105.949 12.5258 106.407 12.6436 106.918 12.6436ZM121.069 15V12.9382L120.872 12.4865V8.79491C120.872 8.14036 120.669 7.62982 120.263 7.26327C119.871 6.89673 119.262 6.71345 118.437 6.71345C117.874 6.71345 117.318 6.80509 116.768 6.98836C116.231 7.15855 115.773 7.39418 115.394 7.69527L114.294 5.55491C114.87 5.14909 115.564 4.83491 116.375 4.61236C117.187 4.38982 118.012 4.27855 118.85 4.27855C120.46 4.27855 121.71 4.65818 122.6 5.41745C123.49 6.17673 123.935 7.36145 123.935 8.97164V15H121.069ZM117.848 15.1571C117.023 15.1571 116.317 15.0196 115.727 14.7447C115.138 14.4567 114.687 14.0705 114.373 13.5862C114.058 13.1018 113.901 12.5585 113.901 11.9564C113.901 11.328 114.052 10.7782 114.353 10.3069C114.667 9.83564 115.158 9.46909 115.826 9.20727C116.493 8.93236 117.364 8.79491 118.437 8.79491H121.245V10.5818H118.771C118.051 10.5818 117.554 10.6996 117.279 10.9353C117.017 11.1709 116.886 11.4655 116.886 11.8189C116.886 12.2116 117.037 12.5258 117.338 12.7615C117.652 12.984 118.077 13.0953 118.614 13.0953C119.125 13.0953 119.583 12.9775 119.989 12.7418C120.394 12.4931 120.689 12.1331 120.872 11.6618L121.343 13.0756C121.121 13.7564 120.715 14.2735 120.126 14.6269C119.537 14.9804 118.778 15.1571 117.848 15.1571ZM131.89 15.1571C130.751 15.1571 129.737 14.928 128.846 14.4698C127.956 13.9985 127.256 13.3505 126.745 12.5258C126.248 11.7011 125.999 10.7651 125.999 9.71782C125.999 8.65745 126.248 7.72145 126.745 6.90982C127.256 6.08509 127.956 5.44364 128.846 4.98545C129.737 4.51418 130.751 4.27855 131.89 4.27855C133.003 4.27855 133.971 4.51418 134.796 4.98545C135.621 5.44364 136.23 6.10473 136.622 6.96873L134.246 8.24509C133.971 7.74764 133.625 7.38109 133.206 7.14546C132.8 6.90982 132.355 6.792 131.87 6.792C131.347 6.792 130.875 6.90982 130.457 7.14546C130.038 7.38109 129.704 7.71491 129.455 8.14691C129.219 8.57891 129.102 9.10255 129.102 9.71782C129.102 10.3331 129.219 10.8567 129.455 11.2887C129.704 11.7207 130.038 12.0545 130.457 12.2902C130.875 12.5258 131.347 12.6436 131.87 12.6436C132.355 12.6436 132.8 12.5324 133.206 12.3098C133.625 12.0742 133.971 11.7011 134.246 11.1905L136.622 12.4865C136.23 13.3375 135.621 13.9985 134.796 14.4698C133.971 14.928 133.003 15.1571 131.89 15.1571ZM143.495 15.1571C142.29 15.1571 141.23 14.9215 140.314 14.4502C139.41 13.9789 138.71 13.3375 138.213 12.5258C137.715 11.7011 137.466 10.7651 137.466 9.71782C137.466 8.65745 137.709 7.72145 138.193 6.90982C138.69 6.08509 139.365 5.44364 140.216 4.98545C141.066 4.51418 142.029 4.27855 143.102 4.27855C144.136 4.27855 145.066 4.50109 145.89 4.94618C146.728 5.37818 147.389 6.00655 147.874 6.83127C148.358 7.64291 148.6 8.61818 148.6 9.75709C148.6 9.87491 148.594 10.0124 148.581 10.1695C148.568 10.3135 148.554 10.4509 148.541 10.5818H139.96V8.79491H146.931L145.753 9.32509C145.753 8.77527 145.642 8.29745 145.419 7.89164C145.197 7.48582 144.889 7.17164 144.496 6.94909C144.104 6.71345 143.645 6.59564 143.122 6.59564C142.598 6.59564 142.133 6.71345 141.728 6.94909C141.335 7.17164 141.027 7.49236 140.805 7.91127C140.582 8.31709 140.471 8.80145 140.471 9.36436V9.83564C140.471 10.4116 140.595 10.9222 140.844 11.3673C141.106 11.7993 141.466 12.1331 141.924 12.3687C142.395 12.5913 142.945 12.7025 143.573 12.7025C144.136 12.7025 144.627 12.6175 145.046 12.4473C145.478 12.2771 145.871 12.0218 146.224 11.6815L147.854 13.4487C147.37 13.9985 146.761 14.424 146.028 14.7251C145.295 15.0131 144.45 15.1571 143.495 15.1571Z" fill="#21C1F3"/>
</svg>
