<svg width="60" height="28" viewBox="0 0 60 28" fill="none" xmlns="http://www.w3.org/2000/svg">
<circle cx="14" cy="14" r="13.1765" fill="#B0DCFB" stroke="#E5F4FF" stroke-width="1.64706"/>
<circle cx="30" cy="14" r="13.1765" fill="#7EC7FB" stroke="#E5F4FF" stroke-width="1.64706"/>
<circle cx="46" cy="14" r="13.1765" fill="#39AAFB" stroke="#E5F4FF" stroke-width="1.64706"/>
<g clip-path="url(#clip0_1_635)">
<path d="M46.6046 7.07189L48.2717 10.8742C48.3344 11.0173 48.4344 11.1409 48.5612 11.2322C48.688 11.3235 48.8369 11.3791 48.9925 11.3932L53.0537 11.7573C53.5132 11.8242 53.6965 12.3877 53.3633 12.7122L50.3041 15.2822C50.0564 15.4903 49.9437 15.8173 50.0118 16.1331L50.9011 20.2959C50.9791 20.7529 50.4998 21.1022 50.0886 20.8854L46.5439 18.8096C46.4102 18.7311 46.258 18.6897 46.103 18.6897C45.9479 18.6897 45.7957 18.7311 45.662 18.8096L42.1173 20.8842C41.7074 21.0997 41.2268 20.7517 41.3048 20.2946L42.1941 16.1319C42.261 15.816 42.1495 15.4891 41.9018 15.281L38.8414 12.7135C38.5094 12.3902 38.6927 11.8254 39.151 11.7586L43.2122 11.3944C43.3678 11.3803 43.5167 11.3247 43.6435 11.2335C43.7703 11.1422 43.8703 11.0185 43.933 10.8755L45.6001 7.07313C45.8069 6.65698 46.399 6.65698 46.6046 7.07189Z" fill="white"/>
</g>
<defs>
<clipPath id="clip0_1_635">
<rect width="15.8534" height="15.8534" fill="white" transform="translate(38.1758 6.17676)"/>
</clipPath>
</defs>
</svg>
