<svg width="21" height="21" viewBox="0 0 21 21" fill="none" xmlns="http://www.w3.org/2000/svg">
<path fill-rule="evenodd" clip-rule="evenodd" d="M8.55149 2.87351C9.12625 2.38374 9.85135 1.27416 10.6062 1.25371C11.361 1.23326 12.1001 2.30317 12.7006 2.76111L12.8411 2.87351L13.1518 3.138C13.3783 3.33141 13.6519 3.45952 13.9453 3.50994L14.0924 3.52813L14.4999 3.56119C15.2547 3.62142 16.7973 3.1076 17.3461 3.62935C17.8949 4.15109 17.4167 5.67676 17.515 6.42759L17.5324 6.5929L17.5654 7.0012C17.5886 7.2971 17.6919 7.58143 17.863 7.82443L17.9539 7.94179L18.22 8.25257C18.7098 8.82734 19.8193 9.55245 19.8398 10.3073C19.8602 11.0622 18.7903 11.8013 18.3324 12.4017L18.22 12.5423L17.9547 12.853C17.7616 13.0792 17.6331 13.3534 17.5828 13.6465L17.5646 13.7936L17.5324 14.2011C17.4721 14.9559 17.9859 16.4986 17.4642 17.0474C16.9425 17.5962 15.4168 17.118 14.666 17.2163L14.4999 17.2336L14.0924 17.2667C13.7963 17.2901 13.5119 17.3929 13.2692 17.5642L13.1518 17.656L12.8403 17.9205C12.2656 18.4104 11.5405 19.5201 10.7857 19.5407C10.0309 19.5613 9.2917 18.4915 8.69118 18.0337L8.55149 17.9213L8.24073 17.656C8.01452 17.4629 7.7404 17.3344 7.44728 17.2841L7.30016 17.2667L6.89269 17.2336C6.13786 17.1734 4.59525 17.6872 4.04644 17.1655C3.49763 16.6437 3.97589 15.1181 3.87758 14.3672L3.86022 14.2019L3.82716 13.7936C3.80376 13.4975 3.70097 13.2131 3.52962 12.9704L3.43788 12.853L3.17257 12.5414C2.68281 11.9667 1.57323 11.2415 1.55278 10.4867C1.53233 9.73182 2.60224 8.9927 3.06016 8.39225L3.17257 8.25257L3.43705 7.94179C3.63045 7.71532 3.75856 7.44174 3.80898 7.14833L3.82716 7.0012L3.86022 6.59372C3.92045 5.83888 3.40663 4.29625 3.92836 3.74743C4.45009 3.1986 5.97574 3.67686 6.72656 3.57854L6.89186 3.56119L7.30016 3.52813C7.59605 3.50498 7.88037 3.40167 8.12336 3.23058L8.24073 3.13883L8.55149 2.87351Z" fill="white" fill-opacity="0.7"/>
<path fill-rule="evenodd" clip-rule="evenodd" d="M8.41268 6.80811C8.13707 6.80811 7.87275 6.91759 7.67787 7.11247C7.48299 7.30735 7.3735 7.57167 7.3735 7.84728C7.3735 8.12288 7.48299 8.3872 7.67787 8.58209C7.87275 8.77697 8.13707 8.88645 8.41268 8.88645C8.68828 8.88645 8.9526 8.77697 9.14748 8.58209C9.34237 8.3872 9.45185 8.12288 9.45185 7.84728C9.45185 7.57167 9.34237 7.30735 9.14748 7.11247C8.9526 6.91759 8.68828 6.80811 8.41268 6.80811ZM13.3959 7.01109L7.57649 12.8305C7.51032 12.8944 7.45754 12.9708 7.42123 13.0553C7.38493 13.1399 7.36582 13.2308 7.36502 13.3228C7.36422 13.4147 7.38175 13.506 7.41658 13.5911C7.45141 13.6762 7.50285 13.7536 7.5679 13.8186C7.63295 13.8837 7.7103 13.9351 7.79544 13.97C7.88058 14.0048 7.9718 14.0223 8.06379 14.0215C8.15578 14.0207 8.24669 14.0016 8.33121 13.9653C8.41573 13.929 8.49218 13.8762 8.55608 13.8101L14.3755 7.99068C14.5016 7.86002 14.5715 7.68503 14.5699 7.50338C14.5683 7.32174 14.4955 7.14798 14.367 7.01953C14.2386 6.89108 14.0648 6.81822 13.8832 6.81664C13.7015 6.81507 13.5265 6.88489 13.3959 7.01109ZM13.5393 11.9347C13.2637 11.9347 12.9993 12.0442 12.8045 12.2391C12.6096 12.4339 12.5001 12.6983 12.5001 12.9739C12.5001 13.2495 12.6096 13.5138 12.8045 13.7087C12.9993 13.9036 13.2637 14.013 13.5393 14.013C13.8149 14.013 14.0792 13.9036 14.2741 13.7087C14.469 13.5138 14.5784 13.2495 14.5784 12.9739C14.5784 12.6983 14.469 12.4339 14.2741 12.2391C14.0792 12.0442 13.8149 11.9347 13.5393 11.9347Z" fill="#3286F6"/>
</svg>
