<svg width="19" height="19" viewBox="0 0 19 19" fill="none" xmlns="http://www.w3.org/2000/svg">
<path d="M9.21611 17.0584C13.4402 17.0584 16.8962 13.6024 16.8962 9.37834C16.8962 5.15429 13.4402 1.69824 9.21611 1.69824C4.99206 1.69824 1.53601 5.15429 1.53601 9.37834C1.53601 13.6024 4.99206 17.0584 9.21611 17.0584Z" fill="#1393FF"/>
<path d="M5.95207 9.37834L8.12554 11.5518L12.4802 7.20488" fill="#1393FF"/>
<path d="M5.95207 9.37834L8.12554 11.5518L12.4802 7.20488M9.21611 17.0584C13.4402 17.0584 16.8962 13.6024 16.8962 9.37834C16.8962 5.15429 13.4402 1.69824 9.21611 1.69824C4.99206 1.69824 1.53601 5.15429 1.53601 9.37834C1.53601 13.6024 4.99206 17.0584 9.21611 17.0584Z" stroke="white" stroke-width="1.15202" stroke-linecap="round" stroke-linejoin="round"/>
</svg>
