<svg width="104" height="107" viewBox="0 0 104 107" fill="none" xmlns="http://www.w3.org/2000/svg">
<g opacity="0.930588" clip-path="url(#clip0_127_201)">
<path d="M89.7165 87.3697C46.4003 107.984 19.5179 90.7362 2.30962 80.2607C1.24478 79.6005 -0.565079 80.4151 1.00522 82.2187C6.73815 89.17 25.5262 105.925 50.0501 105.925C74.5907 105.925 89.19 92.534 91.0168 90.1983C92.8304 87.8822 91.5494 86.6045 89.7156 87.3697H89.7165ZM101.882 80.6513C100.718 79.1366 94.8081 78.8543 91.0887 79.3112C87.3639 79.7549 81.7725 82.0315 82.2587 83.3984C82.5081 83.9105 83.0172 83.6808 85.5763 83.4507C88.1424 83.1947 95.331 82.2875 96.8288 84.2455C98.3335 86.2172 94.5361 95.6094 93.8421 97.1238C93.1726 98.6391 94.0983 99.0295 95.3573 98.0205C96.598 97.0123 98.8459 94.4003 100.354 90.7046C101.852 86.9885 102.765 81.8047 101.881 80.6513H101.882Z" fill="#FF9900"/>
<path fill-rule="evenodd" clip-rule="evenodd" d="M60.5975 45.3046C60.5975 50.7136 60.7342 55.2244 58.0002 60.028C55.7936 63.9337 52.2982 66.3356 48.3928 66.3356C43.0617 66.3356 39.9569 62.2738 39.9569 56.279C39.9569 44.4452 50.56 42.2974 60.5975 42.2974V45.3046ZM74.5985 79.1457C73.6806 79.9656 72.3528 80.0245 71.3179 79.4774C66.7096 75.6503 65.8892 73.8734 63.3508 70.2215C55.7352 77.9936 50.3455 80.3172 40.4648 80.3172C28.7874 80.3172 19.6875 73.1115 19.6875 58.6808C19.6875 47.4137 25.7999 39.7392 34.489 35.9903C42.0269 32.6702 52.5522 32.0845 60.5975 31.1669V29.3703C60.5975 26.07 60.8511 22.1646 58.9182 19.3138C57.2191 16.7556 53.9776 15.7011 51.1263 15.7011C45.8346 15.7011 41.109 18.4152 39.9569 24.0391C39.7222 25.2892 38.8047 26.5195 37.5551 26.5779L24.081 25.1332C22.9487 24.8788 21.699 23.9613 22.0114 22.223C25.1162 5.89853 39.8589 0.977295 53.0593 0.977295C59.8159 0.977295 68.6421 2.77398 73.9733 7.89032C80.7299 14.1974 80.0853 22.6137 80.0853 31.772V53.4085C80.0853 59.9111 82.7801 62.7619 85.3186 66.2771C86.2167 67.5267 86.4122 69.0308 85.2794 69.9676C82.4479 72.3302 77.4098 76.7242 74.6372 79.1848L74.5981 79.1457" fill="black"/>
<path d="M89.7165 87.3697C46.4003 107.984 19.5179 90.7362 2.30962 80.2607C1.24478 79.6005 -0.565079 80.4151 1.00522 82.2187C6.73815 89.17 25.5262 105.925 50.0501 105.925C74.5907 105.925 89.19 92.534 91.0168 90.1983C92.8304 87.8822 91.5494 86.6045 89.7156 87.3697H89.7165ZM101.882 80.6513C100.718 79.1366 94.8081 78.8543 91.0887 79.3112C87.3639 79.7549 81.7725 82.0315 82.2587 83.3984C82.5081 83.9105 83.0172 83.6808 85.5763 83.4507C88.1424 83.1947 95.331 82.2875 96.8288 84.2455C98.3335 86.2172 94.5361 95.6094 93.8421 97.1238C93.1726 98.6391 94.0983 99.0295 95.3573 98.0205C96.598 97.0123 98.8459 94.4003 100.354 90.7046C101.852 86.9885 102.765 81.8047 101.881 80.6513H101.882Z" fill="#FF9900"/>
<path fill-rule="evenodd" clip-rule="evenodd" d="M60.5975 45.3046C60.5975 50.7136 60.7342 55.2244 58.0002 60.028C55.7936 63.9337 52.2982 66.3356 48.3928 66.3356C43.0617 66.3356 39.9569 62.2738 39.9569 56.279C39.9569 44.4452 50.56 42.2974 60.5975 42.2974V45.3046ZM74.5985 79.1457C73.6806 79.9656 72.3528 80.0245 71.3179 79.4774C66.7096 75.6503 65.8892 73.8734 63.3508 70.2215C55.7352 77.9936 50.3455 80.3172 40.4648 80.3172C28.7874 80.3172 19.6875 73.1115 19.6875 58.6808C19.6875 47.4137 25.7999 39.7392 34.489 35.9903C42.0269 32.6702 52.5522 32.0845 60.5975 31.1669V29.3703C60.5975 26.07 60.8511 22.1646 58.9182 19.3138C57.2191 16.7556 53.9776 15.7011 51.1263 15.7011C45.8346 15.7011 41.109 18.4152 39.9569 24.0391C39.7222 25.2892 38.8047 26.5195 37.5551 26.5779L24.081 25.1332C22.9487 24.8788 21.699 23.9613 22.0114 22.223C25.1162 5.89853 39.8589 0.977295 53.0593 0.977295C59.8159 0.977295 68.6421 2.77398 73.9733 7.89032C80.7299 14.1974 80.0853 22.6137 80.0853 31.772V53.4085C80.0853 59.9111 82.7801 62.7619 85.3186 66.2771C86.2167 67.5267 86.4122 69.0308 85.2794 69.9676C82.4479 72.3302 77.4098 76.7242 74.6372 79.1848L74.5981 79.1457" fill="black"/>
</g>
<defs>
<clipPath id="clip0_127_201">
<rect width="102.657" height="105.289" fill="white" transform="translate(0.390625 0.977295)"/>
</clipPath>
</defs>
</svg>
