<svg width="97" height="80" viewBox="0 0 97 80" fill="none" xmlns="http://www.w3.org/2000/svg">
<path d="M46.9085 49.8902C46.52 50.6912 46.5508 51.6337 46.9886 52.4094L53.209 63.0679C53.7354 63.9715 53.684 65.099 53.0783 65.9529C52.4965 66.8217 51.4667 67.2759 50.4326 67.1274L38.2087 65.514C37.7823 65.454 37.3485 65.4965 36.9385 65.6328L36.31 65.8619C36.1038 65.9738 35.9158 66.1211 35.7599 66.2988L27.4482 75.426C27.0333 75.8662 26.4911 76.1663 25.8946 76.2812C24.4271 76.5219 23.0343 75.5478 22.7563 74.0859L20.6616 61.9237C20.4949 61.0413 19.9104 60.2954 19.0942 59.923L7.76155 54.8584C6.81352 54.4342 6.19809 53.5026 6.18255 52.4652C6.15858 51.4336 6.70743 50.4743 7.61027 49.9745L18.5267 44.1014C19.3704 43.6914 19.9459 42.8774 20.0528 41.9452L21.3363 29.6814C21.3724 29.4055 21.45 29.1355 21.5719 28.8861L21.7214 28.6477C21.7865 28.4874 21.8754 28.342 21.9849 28.2102L22.2039 28.0253L22.539 27.7192L23.5153 27.3634C24.4203 27.136 25.3781 27.378 26.0633 28.011L34.9877 36.5017C35.6352 37.1248 36.5483 37.3883 37.4273 37.2124L49.5627 34.6835C50.5874 34.4676 51.6465 34.8435 52.307 35.6536C52.9497 36.4728 53.0596 37.5887 52.5896 38.5193L46.9085 49.8902Z" fill="url(#paint0_linear_1_756)"/>
<g opacity="0.5" filter="url(#filter0_f_1_756)">
<path d="M36.22 43.7225C30.9125 43.7225 26.605 48.031 26.605 53.3376C26.605 58.646 30.9125 62.9526 36.22 62.9526C41.5371 62.9526 45.835 58.646 45.835 53.3376C45.835 48.031 41.5371 43.7225 36.22 43.7225V43.7225Z" fill="#147BFF"/>
</g>
<g filter="url(#filter1_b_1_756)">
<path d="M75.2114 48.0986C74.2322 48.6639 73.5931 49.6766 73.5005 50.804L72.4446 66.4418C72.3541 67.7669 71.4966 68.9155 70.2514 69.3816C69.0206 69.8804 67.6143 69.624 66.633 68.7309L54.9321 58.3241C54.5265 57.9571 54.0402 57.6927 53.512 57.5438L52.688 57.3368C52.3915 57.3075 52.0889 57.3284 51.7984 57.4041L36.5564 61.0764C35.8065 61.2435 35.0227 61.1726 34.3137 60.8684C32.5994 60.0756 31.8293 58.0591 32.5788 56.3242L39.0435 42.0456C39.4971 40.9992 39.4142 39.7985 38.8215 38.8254L30.5167 25.4254C29.8224 24.3039 29.8393 22.8859 30.5622 21.7843C31.2721 20.6827 32.5327 20.0653 33.838 20.1832L49.4994 21.788C50.6785 21.9583 51.8636 21.5126 52.6402 20.6088L62.7288 8.63067C62.9633 8.36636 63.2373 8.13783 63.5432 7.96257L63.8703 7.8185C64.0529 7.69631 64.2499 7.60683 64.4591 7.54625L64.821 7.50791L65.3914 7.42496L66.6714 7.7466C67.7847 8.15242 68.6192 9.08938 68.8885 10.2431L72.2201 25.5288C72.4567 26.6452 73.2289 27.5729 74.2783 28.0144L88.8381 34.0035C90.0692 34.5068 90.9148 35.6566 91.0318 36.979C91.1237 38.2982 90.444 39.5496 89.2868 40.193L75.2114 48.0986Z" fill="url(#paint1_linear_1_756)" fill-opacity="0.2"/>
<path d="M72.8411 66.4685L72.841 66.4689C72.74 67.9481 71.7837 69.2301 70.3956 69.7518C69.024 70.3055 67.4593 70.019 66.3673 69.0264C66.3667 69.0259 66.3662 69.0253 66.3656 69.0248L54.668 58.621L54.6655 58.6187C54.3082 58.2955 53.8787 58.0609 53.4095 57.9278L52.6209 57.7296C52.3779 57.7087 52.1324 57.7277 51.8986 57.7886L51.8915 57.7905L51.8915 57.7904L36.6495 61.4627L36.6429 61.4643L36.6429 61.4642C35.8122 61.6494 34.9433 61.5709 34.1571 61.2336L34.1469 61.2292L34.1469 61.2291C32.2369 60.3458 31.3792 58.0992 32.2141 56.1666L32.2168 56.1603L32.2168 56.1603L38.6789 41.8875C38.6793 41.8866 38.6797 41.8856 38.6801 41.8847C39.0809 40.9577 39.0072 39.8949 38.4828 39.0331C38.4826 39.0327 38.4824 39.0324 38.4822 39.032L30.179 25.6347L30.1789 25.6346C29.4038 24.3826 29.422 22.7987 30.229 21.5677C31.019 20.343 32.4213 19.6563 33.8738 19.7875L33.8785 19.7879L33.8785 19.7879L49.5399 21.3928C49.5454 21.3933 49.5508 21.394 49.5562 21.3948C50.5998 21.5454 51.6492 21.1513 52.3375 20.3513C52.3379 20.3508 52.3384 20.3503 52.3388 20.3498L62.4249 8.37469L62.4315 8.36688L62.4316 8.36696C62.6924 8.07302 62.9994 7.81618 63.3456 7.61781C63.3577 7.61086 63.3702 7.60456 63.383 7.59892L63.6797 7.46827C63.8895 7.33233 64.1138 7.23257 64.3485 7.16459C64.371 7.15808 64.394 7.15358 64.4172 7.15111L64.7715 7.11359L65.3342 7.03175C65.3855 7.02428 65.4379 7.02694 65.4882 7.03959L66.7682 7.36122C66.7815 7.36456 66.7946 7.36858 66.8074 7.37327C68.0461 7.82477 68.9755 8.86767 69.2754 10.1528L69.2768 10.1585L69.2767 10.1585L72.6083 25.4441L72.6088 25.4464C72.8182 26.4341 73.5014 27.256 74.4311 27.6476C74.4315 27.6478 74.432 27.648 74.4324 27.6482L88.9884 33.6357L72.8411 66.4685ZM72.8411 66.4685L73.8965 50.8366C73.8966 50.8356 73.8967 50.8347 73.8967 50.8338C73.9795 49.8376 74.5442 48.9435 75.408 48.4439C75.4087 48.4435 75.4094 48.4431 75.4101 48.4427L89.4799 40.5403C89.4801 40.5402 89.4802 40.5401 89.4804 40.54C90.7718 39.8218 91.5309 38.4246 91.4282 36.9513L91.4283 36.9513M72.8411 66.4685L91.4283 36.9513M91.4283 36.9513L91.4276 36.9439M91.4283 36.9513L91.4276 36.9439M91.4276 36.9439C91.2975 35.4741 90.3578 34.1958 88.9892 33.636L91.4276 36.9439Z" stroke="url(#paint2_linear_1_756)" stroke-width="0.794702" stroke-linecap="round" stroke-linejoin="round"/>
</g>
<defs>
<filter id="filter0_f_1_756" x="11.2505" y="28.3681" width="49.9391" height="49.9391" filterUnits="userSpaceOnUse" color-interpolation-filters="sRGB">
<feFlood flood-opacity="0" result="BackgroundImageFix"/>
<feBlend mode="normal" in="SourceGraphic" in2="BackgroundImageFix" result="shape"/>
<feGaussianBlur stdDeviation="7.67724" result="effect1_foregroundBlur_1_756"/>
</filter>
<filter id="filter1_b_1_756" x="10.1402" y="-12.4426" width="100.768" height="101.943" filterUnits="userSpaceOnUse" color-interpolation-filters="sRGB">
<feFlood flood-opacity="0" result="BackgroundImageFix"/>
<feGaussianBlur in="BackgroundImageFix" stdDeviation="9.53642"/>
<feComposite in2="SourceAlpha" operator="in" result="effect1_backgroundBlur_1_756"/>
<feBlend mode="normal" in="SourceGraphic" in2="effect1_backgroundBlur_1_756" result="shape"/>
</filter>
<linearGradient id="paint0_linear_1_756" x1="43.07" y1="20.236" x2="8.51511" y2="71.531" gradientUnits="userSpaceOnUse">
<stop stop-color="#71FFFF"/>
<stop offset="1" stop-color="#21C1F3"/>
</linearGradient>
<linearGradient id="paint1_linear_1_756" x1="84.0027" y1="29" x2="51.7336" y2="65.4114" gradientUnits="userSpaceOnUse">
<stop stop-color="#60DAFF"/>
<stop offset="1" stop-color="#B6EEFF"/>
</linearGradient>
<linearGradient id="paint2_linear_1_756" x1="43.8321" y1="9.16291" x2="78.2548" y2="71.5319" gradientUnits="userSpaceOnUse">
<stop stop-color="white" stop-opacity="0.25"/>
<stop offset="1" stop-color="white" stop-opacity="0"/>
</linearGradient>
</defs>
</svg>
