<svg width="90" height="85" viewBox="0 0 90 85" fill="none" xmlns="http://www.w3.org/2000/svg">
<path d="M72.1977 13.629L49.3655 7.51115C41.0836 5.29205 34.9623 8.84922 32.7359 17.1583L25.1953 45.3001C22.9324 53.7454 26.4843 59.7777 34.7661 61.9968L57.5983 68.1146C66.0136 70.3695 71.9695 66.8848 74.2324 58.4395L81.773 30.2977C83.9994 21.9887 80.613 15.8839 72.1977 13.629Z" fill="url(#paint0_linear_95_344)"/>
<g opacity="0.5" filter="url(#filter0_f_95_344)">
<path d="M66.2321 21.3354L50.6763 17.1672C45.0338 15.6553 40.8633 18.0788 39.3464 23.7399L34.2089 42.9132C32.6672 48.667 35.0871 52.7769 40.7296 54.2888L56.2854 58.4569C62.0188 59.9932 66.0766 57.619 67.6184 51.8652L72.7558 32.6919C74.2727 27.0309 71.9655 22.8716 66.2321 21.3354Z" fill="#00BDF8"/>
</g>
<g filter="url(#filter1_b_95_344)">
<mask id="path-3-outside-1_95_344" maskUnits="userSpaceOnUse" x="0" y="18.0994" width="67" height="67" fill="black">
<rect fill="white" y="18.0994" width="67" height="67"/>
<path d="M47.5338 19.0994H19.3993C8.39867 19.0994 1 26.8225 1 38.31V64.8219C1 76.2769 8.39867 84 19.3993 84H47.5338C58.5344 84 65.9007 76.2769 65.9007 64.8219V38.31C65.9007 26.8225 58.5344 19.0994 47.5338 19.0994"/>
</mask>
<path d="M47.5338 19.0994H19.3993C8.39867 19.0994 1 26.8225 1 38.31V64.8219C1 76.2769 8.39867 84 19.3993 84H47.5338C58.5344 84 65.9007 76.2769 65.9007 64.8219V38.31C65.9007 26.8225 58.5344 19.0994 47.5338 19.0994" fill="#BCEFFF" fill-opacity="0.35"/>
<path d="M47.5338 19.8941C47.9727 19.8941 48.3285 19.5383 48.3285 19.0994C48.3285 18.6605 47.9727 18.3047 47.5338 18.3047V19.8941ZM47.5338 18.3047C47.0949 18.3047 46.7391 18.6605 46.7391 19.0994C46.7391 19.5383 47.0949 19.8941 47.5338 19.8941V18.3047ZM47.5338 18.3047H19.3993V19.8941H47.5338V18.3047ZM19.3993 18.3047C13.7061 18.3047 8.89084 20.3076 5.50051 23.8472C2.11303 27.3838 0.205298 32.394 0.205298 38.31H1.7947C1.7947 32.7385 3.58631 28.1434 6.64833 24.9466C9.7075 21.7527 14.0919 19.8941 19.3993 19.8941V18.3047ZM0.205298 38.31V64.8219H1.7947V38.31H0.205298ZM0.205298 64.8219C0.205298 70.7222 2.11339 75.7243 5.50084 79.2566C8.89108 82.7919 13.7061 84.7947 19.3993 84.7947V83.2053C14.0919 83.2053 9.70726 81.3466 6.648 78.1565C3.58595 74.9635 1.7947 70.3765 1.7947 64.8219H0.205298ZM19.3993 84.7947H47.5338V83.2053H19.3993V84.7947ZM47.5338 84.7947C53.2272 84.7947 58.0345 82.7917 61.4167 79.2559C64.796 75.7232 66.6954 70.7212 66.6954 64.8219H65.106C65.106 70.3775 63.3222 74.9646 60.2682 78.1572C57.2172 81.3468 52.841 83.2053 47.5338 83.2053V84.7947ZM66.6954 64.8219V38.31H65.106V64.8219H66.6954ZM66.6954 38.31C66.6954 32.395 64.7964 27.3849 61.4171 23.8479C58.0347 20.3077 53.2272 18.3047 47.5338 18.3047V19.8941C52.841 19.8941 57.2169 21.7526 60.2679 24.9459C63.3218 28.1424 65.106 32.7376 65.106 38.31H66.6954Z" fill="url(#paint1_linear_95_344)" mask="url(#path-3-outside-1_95_344)"/>
</g>
<g filter="url(#filter2_bd_95_344)">
<mask id="path-5-inside-2_95_344" fill="white">
<path d="M29.5984 62.0893C28.8715 62.0893 28.1447 61.8135 27.5898 61.2586L19.8893 53.5581C18.7795 52.4483 18.7795 50.6506 19.8893 49.544C20.9991 48.4342 22.7936 48.4309 23.9034 49.5407L29.5984 55.2358L42.9939 41.8403C44.1037 40.7305 45.8982 40.7305 47.008 41.8403C48.1178 42.9501 48.1178 44.7478 47.008 45.8576L31.6071 61.2586C31.0522 61.8135 30.3253 62.0893 29.5984 62.0893"/>
</mask>
<path d="M29.5984 62.0893C28.8715 62.0893 28.1447 61.8135 27.5898 61.2586L19.8893 53.5581C18.7795 52.4483 18.7795 50.6506 19.8893 49.544C20.9991 48.4342 22.7936 48.4309 23.9034 49.5407L29.5984 55.2358L42.9939 41.8403C44.1037 40.7305 45.8982 40.7305 47.008 41.8403C48.1178 42.9501 48.1178 44.7478 47.008 45.8576L31.6071 61.2586C31.0522 61.8135 30.3253 62.0893 29.5984 62.0893" fill="url(#paint2_linear_95_344)"/>
<path d="M19.8893 49.544L20.0015 49.6565L20.0017 49.6564L19.8893 49.544ZM29.5984 55.2358L29.486 55.3482L29.5984 55.4606L29.7108 55.3482L29.5984 55.2358ZM47.008 45.8576L46.8956 45.7452L46.8956 45.7452L47.008 45.8576ZM31.6071 61.2586L31.7195 61.371L31.7195 61.371L31.6071 61.2586ZM29.5984 61.9304C28.9118 61.9304 28.2259 61.6699 27.7021 61.1462L27.4774 61.371C28.0634 61.957 28.8313 62.2482 29.5984 62.2482V61.9304ZM27.7021 61.1462L20.0017 53.4457L19.7769 53.6705L27.4774 61.371L27.7021 61.1462ZM20.0017 53.4457C18.9539 52.3979 18.9541 50.7009 20.0015 49.6565L19.7771 49.4314C18.6049 50.6002 18.6051 52.4987 19.7769 53.6705L20.0017 53.4457ZM20.0017 49.6564C21.0497 48.6084 22.7435 48.6056 23.791 49.6531L24.0158 49.4284C22.8437 48.2563 20.9485 48.26 19.7769 49.4316L20.0017 49.6564ZM23.791 49.6531L29.486 55.3482L29.7108 55.1234L24.0158 49.4284L23.791 49.6531ZM29.7108 55.3482L43.1063 41.9527L42.8815 41.7279L29.486 55.1234L29.7108 55.3482ZM43.1063 41.9527C44.1541 40.9049 45.8479 40.9049 46.8956 41.9527L47.1204 41.7279C45.9486 40.556 44.0534 40.556 42.8815 41.7279L43.1063 41.9527ZM46.8956 41.9527C47.9434 43.0004 47.9434 44.6975 46.8956 45.7452L47.1204 45.97C48.2923 44.7982 48.2923 42.8998 47.1204 41.7279L46.8956 41.9527ZM46.8956 45.7452L31.4947 61.1462L31.7195 61.371L47.1204 45.97L46.8956 45.7452ZM31.4947 61.1462C30.971 61.6699 30.2851 61.9304 29.5984 61.9304V62.2482C30.3656 62.2482 31.1335 61.957 31.7195 61.371L31.4947 61.1462Z" fill="url(#paint3_linear_95_344)" fill-opacity="0.5" mask="url(#path-5-inside-2_95_344)"/>
</g>
<defs>
<filter id="filter0_f_95_344" x="17.8593" y="0.832523" width="71.245" height="73.9752" filterUnits="userSpaceOnUse" color-interpolation-filters="sRGB">
<feFlood flood-opacity="0" result="BackgroundImageFix"/>
<feBlend mode="normal" in="SourceGraphic" in2="BackgroundImageFix" result="shape"/>
<feGaussianBlur stdDeviation="7.94702" result="effect1_foregroundBlur_95_344"/>
</filter>
<filter id="filter1_b_95_344" x="-18.8675" y="-0.768158" width="104.636" height="104.636" filterUnits="userSpaceOnUse" color-interpolation-filters="sRGB">
<feFlood flood-opacity="0" result="BackgroundImageFix"/>
<feGaussianBlur in="BackgroundImageFix" stdDeviation="9.53642"/>
<feComposite in2="SourceAlpha" operator="in" result="effect1_backgroundBlur_95_344"/>
<feBlend mode="normal" in="SourceGraphic" in2="effect1_backgroundBlur_95_344" result="shape"/>
</filter>
<filter id="filter2_bd_95_344" x="5.83046" y="25.7779" width="63.1834" height="55.4813" filterUnits="userSpaceOnUse" color-interpolation-filters="sRGB">
<feFlood flood-opacity="0" result="BackgroundImageFix"/>
<feGaussianBlur in="BackgroundImageFix" stdDeviation="5.96026"/>
<feComposite in2="SourceAlpha" operator="in" result="effect1_backgroundBlur_95_344"/>
<feColorMatrix in="SourceAlpha" type="matrix" values="0 0 0 0 0 0 0 0 0 0 0 0 0 0 0 0 0 0 127 0" result="hardAlpha"/>
<feOffset dx="3.97351" dy="1.97"/>
<feGaussianBlur stdDeviation="8.6"/>
<feColorMatrix type="matrix" values="0 0 0 0 0.0433023 0 0 0 0 0.385227 0 0 0 0 0.492079 0 0 0 0.25 0"/>
<feBlend mode="normal" in2="effect1_backgroundBlur_95_344" result="effect2_dropShadow_95_344"/>
<feBlend mode="normal" in="SourceGraphic" in2="effect2_dropShadow_95_344" result="shape"/>
</filter>
<linearGradient id="paint0_linear_95_344" x1="81.7913" y1="16.1996" x2="17.8847" y2="35.5599" gradientUnits="userSpaceOnUse">
<stop stop-color="#7DE0FF"/>
<stop offset="1" stop-color="#21C1F3"/>
</linearGradient>
<linearGradient id="paint1_linear_95_344" x1="11.3311" y1="26.6604" x2="64.3862" y2="80.7063" gradientUnits="userSpaceOnUse">
<stop stop-color="white" stop-opacity="0.25"/>
<stop offset="1" stop-color="white" stop-opacity="0"/>
</linearGradient>
<linearGradient id="paint2_linear_95_344" x1="45.4983" y1="39" x2="23.1059" y2="47.8795" gradientUnits="userSpaceOnUse">
<stop stop-color="white" stop-opacity="0.2"/>
<stop offset="1" stop-color="white"/>
</linearGradient>
<linearGradient id="paint3_linear_95_344" x1="22.1576" y1="48.0797" x2="46.598" y2="48.2639" gradientUnits="userSpaceOnUse">
<stop stop-color="white"/>
<stop offset="1" stop-color="white" stop-opacity="0"/>
</linearGradient>
</defs>
</svg>
