<svg width="75" height="84" viewBox="0 0 75 84" fill="none" xmlns="http://www.w3.org/2000/svg">
<path d="M50.5208 12.4357L28.147 6.44066C20.0314 4.26611 14.033 7.75187 11.8513 15.8941L4.46212 43.471C2.24464 51.7467 5.72517 57.6579 13.8407 59.8324L36.2145 65.8275C44.4609 68.0371 50.2972 64.6223 52.5147 56.3466L59.9039 28.7698C62.0856 20.6275 58.7672 14.6453 50.5208 12.4357Z" fill="url(#paint0_linear_95_62)"/>
<g opacity="0.5" filter="url(#filter0_f_95_62)">
<path d="M25.8341 35.3645C21.2165 34.8732 17.7133 30.9776 17.7133 26.3339V26.3339C17.7133 21.6902 21.2165 17.7946 25.8342 17.3034L32.4745 16.597C38.2596 15.9816 43.3022 20.5162 43.3022 26.3339V26.3339C43.3022 32.1517 38.2596 36.6863 32.4744 36.0709L25.8341 35.3645Z" fill="#0062FF"/>
</g>
<g filter="url(#filter1_b_95_62)">
<path d="M67.9966 40.5764C67.9966 29.3215 61.1737 22.6923 49.6274 22.6923H19.3723C7.82296 22.6923 1 29.3215 1 40.5764V65.0897C1 76.3446 7.82296 83 19.3723 83H49.6393C61.1856 83 68.0085 76.3446 68.0085 65.0897C68.0085 53.8348 67.9966 41.8198 67.9966 40.5764Z" fill="#B7EBFB" fill-opacity="0.35"/>
<path d="M68.394 40.5764C68.394 34.8679 66.6618 30.2844 63.419 27.129C60.1776 23.9749 55.4755 22.2949 49.6274 22.2949H19.3723C13.5227 22.2949 8.81985 23.9749 5.57805 27.1289C2.33481 30.2844 0.602649 34.8679 0.602649 40.5764V65.0897C0.602649 70.7982 2.33478 75.388 5.57775 78.5499C8.8194 81.7106 13.5222 83.3973 19.3723 83.3973H49.6393C55.4878 83.3973 60.1899 81.7105 63.4312 78.5499C66.6738 75.388 68.4059 70.7982 68.4059 65.0897C68.4059 59.4621 68.4029 53.6446 68.3999 49.0785C68.3985 46.7898 68.397 44.8157 68.3958 43.3375C68.3947 41.8664 68.394 40.8864 68.394 40.5764Z" stroke="url(#paint1_linear_95_62)" stroke-width="0.794702" stroke-linecap="round" stroke-linejoin="round"/>
</g>
<g filter="url(#filter2_b_95_62)">
<path d="M43.8284 54.3497C44.7328 58.4471 48.339 61.33 52.4563 61.255H70.923C72.6361 61.255 74.0257 59.8417 74.0257 58.0948V47.1896C74.022 45.4464 72.6361 44.0294 70.923 44.0256H52.1254C47.4421 44.0406 43.6593 47.9131 43.6667 52.6853C43.6667 53.2439 43.7218 53.8024 43.8284 54.3497Z" fill="#52D0F7" fill-opacity="0.35"/>
<path d="M43.4384 54.4257L43.4383 54.4257L43.4404 54.4354C44.3842 58.7115 48.1501 61.729 52.4598 61.6523H70.923C72.8622 61.6523 74.423 60.0544 74.423 58.0948L74.423 47.1896L74.423 47.1888C74.4189 45.2344 72.8633 43.6325 70.9239 43.6283H70.923L52.1254 43.6283L52.1242 43.6283C47.2147 43.644 43.2618 47.7014 43.2693 52.6856C43.2694 53.2701 43.3271 53.854 43.4384 54.4257Z" stroke="url(#paint2_linear_95_62)" stroke-width="0.794702" stroke-linecap="round" stroke-linejoin="round"/>
</g>
<g filter="url(#filter3_bd_95_62)">
<circle cx="52.282" cy="52.641" r="3.69231" fill="url(#paint3_linear_95_62)"/>
<circle cx="52.282" cy="52.641" r="3.61026" stroke="url(#paint4_linear_95_62)" stroke-opacity="0.5" stroke-width="0.164103"/>
</g>
<g filter="url(#filter4_bd_95_62)">
<path d="M35.7997 40.6813H16.9033C15.4886 40.6755 14.345 39.5517 14.351 38.1725C14.3569 36.799 15.4976 35.6869 16.9033 35.6811H35.8116C37.2262 35.6752 38.3817 36.7903 38.3877 38.1696C38.3936 39.5517 37.25 40.6755 35.8354 40.6813H35.8116H35.7997Z" fill="url(#paint5_linear_95_62)"/>
<path d="M35.8116 35.7605L35.8119 35.7605C37.1846 35.7549 38.3025 36.8365 38.3082 38.1699C38.314 39.5063 37.2077 40.5961 35.8352 40.6018C35.8352 40.6018 35.8351 40.6018 35.8351 40.6018L35.8116 40.6018H35.7997L16.9036 40.6018C15.5309 40.5962 14.4247 39.5063 14.4304 38.1728C14.4362 36.8448 15.5396 35.7662 16.9034 35.7605L35.8116 35.7605Z" stroke="url(#paint6_linear_95_62)" stroke-opacity="0.5" stroke-width="0.15894"/>
</g>
<defs>
<filter id="filter0_f_95_62" x="1.30306" y="0.130758" width="58.4094" height="52.4065" filterUnits="userSpaceOnUse" color-interpolation-filters="sRGB">
<feFlood flood-opacity="0" result="BackgroundImageFix"/>
<feBlend mode="normal" in="SourceGraphic" in2="BackgroundImageFix" result="shape"/>
<feGaussianBlur stdDeviation="8.20513" result="effect1_foregroundBlur_95_62"/>
</filter>
<filter id="filter1_b_95_62" x="-18.8675" y="2.82474" width="106.744" height="100.043" filterUnits="userSpaceOnUse" color-interpolation-filters="sRGB">
<feFlood flood-opacity="0" result="BackgroundImageFix"/>
<feGaussianBlur in="BackgroundImageFix" stdDeviation="9.53642"/>
<feComposite in2="SourceAlpha" operator="in" result="effect1_backgroundBlur_95_62"/>
<feBlend mode="normal" in="SourceGraphic" in2="effect1_backgroundBlur_95_62" result="shape"/>
</filter>
<filter id="filter2_b_95_62" x="23.7992" y="24.1581" width="70.0941" height="56.9659" filterUnits="userSpaceOnUse" color-interpolation-filters="sRGB">
<feFlood flood-opacity="0" result="BackgroundImageFix"/>
<feGaussianBlur in="BackgroundImageFix" stdDeviation="9.53642"/>
<feComposite in2="SourceAlpha" operator="in" result="effect1_backgroundBlur_95_62"/>
<feBlend mode="normal" in="SourceGraphic" in2="effect1_backgroundBlur_95_62" result="shape"/>
</filter>
<filter id="filter3_bd_95_62" x="36.282" y="36.641" width="32" height="32" filterUnits="userSpaceOnUse" color-interpolation-filters="sRGB">
<feFlood flood-opacity="0" result="BackgroundImageFix"/>
<feGaussianBlur in="BackgroundImageFix" stdDeviation="6.15385"/>
<feComposite in2="SourceAlpha" operator="in" result="effect1_backgroundBlur_95_62"/>
<feColorMatrix in="SourceAlpha" type="matrix" values="0 0 0 0 0 0 0 0 0 0 0 0 0 0 0 0 0 0 127 0" result="hardAlpha"/>
<feOffset dx="4.10256" dy="4.10256"/>
<feGaussianBlur stdDeviation="4.10256"/>
<feColorMatrix type="matrix" values="0 0 0 0 0.15375 0 0 0 0 0.522433 0 0 0 0 0.9 0 0 0 0.5 0"/>
<feBlend mode="normal" in2="effect1_backgroundBlur_95_62" result="effect2_dropShadow_95_62"/>
<feBlend mode="normal" in="SourceGraphic" in2="effect2_dropShadow_95_62" result="shape"/>
</filter>
<filter id="filter4_bd_95_62" x="1.12446" y="20.451" width="58.4367" height="39.4002" filterUnits="userSpaceOnUse" color-interpolation-filters="sRGB">
<feFlood flood-opacity="0" result="BackgroundImageFix"/>
<feGaussianBlur in="BackgroundImageFix" stdDeviation="5.96026"/>
<feComposite in2="SourceAlpha" operator="in" result="effect1_backgroundBlur_95_62"/>
<feColorMatrix in="SourceAlpha" type="matrix" values="0 0 0 0 0 0 0 0 0 0 0 0 0 0 0 0 0 0 127 0" result="hardAlpha"/>
<feOffset dx="3.97351" dy="1.97"/>
<feGaussianBlur stdDeviation="8.6"/>
<feColorMatrix type="matrix" values="0 0 0 0 0.0433023 0 0 0 0 0.385227 0 0 0 0 0.492079 0 0 0 0.25 0"/>
<feBlend mode="normal" in2="effect1_backgroundBlur_95_62" result="effect2_dropShadow_95_62"/>
<feBlend mode="normal" in="SourceGraphic" in2="effect2_dropShadow_95_62" result="shape"/>
</filter>
<linearGradient id="paint0_linear_95_62" x1="59.9219" y1="14.9547" x2="-2.70178" y2="33.9263" gradientUnits="userSpaceOnUse">
<stop stop-color="#7DE0FF"/>
<stop offset="1" stop-color="#21C1F3"/>
</linearGradient>
<linearGradient id="paint1_linear_95_62" x1="11.6667" y1="29.7182" x2="60.5997" y2="85.1036" gradientUnits="userSpaceOnUse">
<stop stop-color="white" stop-opacity="0.25"/>
<stop offset="1" stop-color="white" stop-opacity="0"/>
</linearGradient>
<linearGradient id="paint2_linear_95_62" x1="48.4993" y1="46.033" x2="60.4793" y2="67.5348" gradientUnits="userSpaceOnUse">
<stop stop-color="white" stop-opacity="0.25"/>
<stop offset="1" stop-color="white" stop-opacity="0"/>
</linearGradient>
<linearGradient id="paint3_linear_95_62" x1="55.4508" y1="50.2822" x2="47.225" y2="50.5504" gradientUnits="userSpaceOnUse">
<stop stop-color="white"/>
<stop offset="1" stop-color="white" stop-opacity="0.2"/>
</linearGradient>
<linearGradient id="paint4_linear_95_62" x1="49.3852" y1="51.4259" x2="55.6558" y2="51.4605" gradientUnits="userSpaceOnUse">
<stop stop-color="white"/>
<stop offset="1" stop-color="white" stop-opacity="0"/>
</linearGradient>
<linearGradient id="paint5_linear_95_62" x1="36.4319" y1="35.2048" x2="29.0942" y2="45.4491" gradientUnits="userSpaceOnUse">
<stop stop-color="white" stop-opacity="0.2"/>
<stop offset="1" stop-color="white"/>
</linearGradient>
<linearGradient id="paint6_linear_95_62" x1="16.9402" y1="37.3584" x2="37.337" y2="37.8996" gradientUnits="userSpaceOnUse">
<stop stop-color="white"/>
<stop offset="1" stop-color="white" stop-opacity="0"/>
</linearGradient>
</defs>
</svg>
